<svg width="344" height="99" viewBox="0 0 344 99" fill="none" xmlns="http://www.w3.org/2000/svg">
<path d="M85.3716 43.8664L80.2863 16.7441C80.1436 15.9863 79.7407 15.3022 79.1472 14.8099C78.5537 14.3176 77.8069 14.0481 77.0358 14.0479H21.9642C21.1931 14.0481 20.4463 14.3176 19.8528 14.8099C19.2593 15.3022 18.8564 15.9863 18.7138 16.7441L13.6284 43.8664C11.3804 44.481 9.39578 45.8157 7.97861 47.6658C6.56143 49.516 5.78979 51.7797 5.78188 54.1102V68.7876C5.78183 69.2218 5.86732 69.6517 6.03345 70.0528C6.19958 70.4539 6.44309 70.8184 6.75009 71.1254C7.05709 71.4324 7.42156 71.6759 7.82268 71.8421C8.22381 72.0082 8.65373 72.0937 9.0879 72.0937H11.2926V75.2168C11.2926 77.7987 12.3182 80.275 14.144 82.1007C15.9697 83.9264 18.4459 84.9521 21.0278 84.9521C23.6098 84.9521 26.086 83.9264 27.9117 82.1007C29.7374 80.275 30.7631 77.7987 30.7631 75.2168V72.0937H68.2369V75.2168C68.2369 77.7987 69.2626 80.275 71.0883 82.1007C72.914 83.9264 75.3902 84.9521 77.9722 84.9521C80.5541 84.9521 83.0303 83.9264 84.856 82.1007C86.6818 80.275 87.7075 77.7987 87.7075 75.2168V72.0937H89.9121C90.3463 72.0937 90.7762 72.0082 91.1773 71.8421C91.5785 71.676 91.9429 71.4324 92.2499 71.1254C92.557 70.8184 92.8005 70.4539 92.9666 70.0528C93.1327 69.6517 93.2182 69.2218 93.2182 68.7876V54.1102C93.2103 51.7797 92.4386 49.516 91.0214 47.6658C89.6043 45.8156 87.6197 44.481 85.3716 43.8664ZM23.783 63.2768C22.6931 63.2768 21.6276 62.9536 20.7214 62.3481C19.8151 61.7426 19.1088 60.8819 18.6917 59.875C18.2746 58.868 18.1655 57.76 18.3781 56.691C18.5908 55.622 19.1156 54.6401 19.8863 53.8694C20.657 53.0987 21.6389 52.5739 22.7079 52.3613C23.7769 52.1486 24.8849 52.2578 25.8918 52.6748C26.8988 53.0919 27.7595 53.7983 28.365 54.7045C28.9705 55.6107 29.2937 56.6762 29.2937 57.7661C29.2937 58.4898 29.1512 59.2064 28.8743 59.875C28.5973 60.5436 28.1914 61.1511 27.6797 61.6628C27.168 62.1746 26.5605 62.5805 25.8919 62.8574C25.2233 63.1343 24.5067 63.2769 23.783 63.2768ZM20.4377 43.4385L24.7088 20.6601H74.2912L78.5623 43.4385H20.4377ZM75.2166 63.2768C74.1266 63.2768 73.0612 62.9536 72.155 62.3481C71.2487 61.7426 70.5424 60.8819 70.1253 59.875C69.7082 58.868 69.5991 57.76 69.8117 56.691C70.0243 55.622 70.5492 54.6401 71.3199 53.8694C72.0906 53.0987 73.0725 52.5739 74.1415 52.3613C75.2104 52.1486 76.3185 52.2578 77.3254 52.6748C78.3324 53.0919 79.1931 53.7983 79.7986 54.7045C80.4041 55.6107 80.7273 56.6762 80.7273 57.7661C80.7273 58.4898 80.5848 59.2064 80.3079 59.875C80.0309 60.5436 79.625 61.1511 79.1133 61.6628C78.6016 62.1746 77.9941 62.5805 77.3255 62.8574C76.6569 63.1343 75.9403 63.2769 75.2166 63.2768Z" fill="#EE767C"/>
<path d="M130.493 37.92V46.32H141.773V51.648H130.493V60.528H143.213V66H123.773V32.448H143.213V37.92H130.493ZM147.592 52.608C147.592 49.92 148.12 47.536 149.176 45.456C150.264 43.376 151.72 41.776 153.544 40.656C155.4 39.536 157.464 38.976 159.736 38.976C161.72 38.976 163.448 39.376 164.92 40.176C166.424 40.976 167.624 41.984 168.52 43.2V39.408H175.288V66H168.52V62.112C167.656 63.36 166.456 64.4 164.92 65.232C163.416 66.032 161.672 66.432 159.688 66.432C157.448 66.432 155.4 65.856 153.544 64.704C151.72 63.552 150.264 61.936 149.176 59.856C148.12 57.744 147.592 55.328 147.592 52.608ZM168.52 52.704C168.52 51.072 168.2 49.68 167.56 48.528C166.92 47.344 166.056 46.448 164.968 45.84C163.88 45.2 162.712 44.88 161.464 44.88C160.216 44.88 159.064 45.184 158.008 45.792C156.952 46.4 156.088 47.296 155.416 48.48C154.776 49.632 154.456 51.008 154.456 52.608C154.456 54.208 154.776 55.616 155.416 56.832C156.088 58.016 156.952 58.928 158.008 59.568C159.096 60.208 160.248 60.528 161.464 60.528C162.712 60.528 163.88 60.224 164.968 59.616C166.056 58.976 166.92 58.08 167.56 56.928C168.2 55.744 168.52 54.336 168.52 52.704ZM192.027 66.432C189.851 66.432 187.899 66.048 186.171 65.28C184.443 64.48 183.067 63.408 182.043 62.064C181.051 60.72 180.507 59.232 180.411 57.6H187.179C187.307 58.624 187.803 59.472 188.667 60.144C189.563 60.816 190.667 61.152 191.979 61.152C193.259 61.152 194.251 60.896 194.955 60.384C195.691 59.872 196.059 59.216 196.059 58.416C196.059 57.552 195.611 56.912 194.715 56.496C193.851 56.048 192.459 55.568 190.539 55.056C188.555 54.576 186.923 54.08 185.643 53.568C184.395 53.056 183.307 52.272 182.379 51.216C181.483 50.16 181.035 48.736 181.035 46.944C181.035 45.472 181.451 44.128 182.283 42.912C183.147 41.696 184.363 40.736 185.931 40.032C187.531 39.328 189.403 38.976 191.547 38.976C194.715 38.976 197.243 39.776 199.131 41.376C201.019 42.944 202.059 45.072 202.251 47.76H195.819C195.723 46.704 195.275 45.872 194.475 45.264C193.707 44.624 192.667 44.304 191.355 44.304C190.139 44.304 189.195 44.528 188.523 44.976C187.883 45.424 187.563 46.048 187.563 46.848C187.563 47.744 188.011 48.432 188.907 48.912C189.803 49.36 191.195 49.824 193.083 50.304C195.003 50.784 196.587 51.28 197.835 51.792C199.083 52.304 200.155 53.104 201.051 54.192C201.979 55.248 202.459 56.656 202.491 58.416C202.491 59.952 202.059 61.328 201.195 62.544C200.363 63.76 199.147 64.72 197.547 65.424C195.979 66.096 194.139 66.432 192.027 66.432ZM233.447 39.408L216.983 78.576H209.831L215.591 65.328L204.935 39.408H212.471L219.335 57.984L226.295 39.408H233.447ZM235.438 49.2C235.438 45.904 236.174 42.96 237.646 40.368C239.15 37.744 241.182 35.712 243.742 34.272C246.334 32.8 249.23 32.064 252.43 32.064C256.174 32.064 259.454 33.024 262.27 34.944C265.086 36.864 267.054 39.52 268.174 42.912H260.446C259.678 41.312 258.59 40.112 257.182 39.312C255.806 38.512 254.206 38.112 252.382 38.112C250.43 38.112 248.686 38.576 247.15 39.504C245.646 40.4 244.462 41.68 243.598 43.344C242.766 45.008 242.35 46.96 242.35 49.2C242.35 51.408 242.766 53.36 243.598 55.056C244.462 56.72 245.646 58.016 247.15 58.944C248.686 59.84 250.43 60.288 252.382 60.288C254.206 60.288 255.806 59.888 257.182 59.088C258.59 58.256 259.678 57.04 260.446 55.44H268.174C267.054 58.864 265.086 61.536 262.27 63.456C259.486 65.344 256.206 66.288 252.43 66.288C249.23 66.288 246.334 65.568 243.742 64.128C241.182 62.656 239.15 60.624 237.646 58.032C236.174 55.44 235.438 52.496 235.438 49.2ZM272.186 52.608C272.186 49.92 272.714 47.536 273.77 45.456C274.858 43.376 276.314 41.776 278.138 40.656C279.994 39.536 282.058 38.976 284.33 38.976C286.314 38.976 288.042 39.376 289.514 40.176C291.018 40.976 292.218 41.984 293.114 43.2V39.408H299.882V66H293.114V62.112C292.25 63.36 291.05 64.4 289.514 65.232C288.01 66.032 286.266 66.432 284.282 66.432C282.042 66.432 279.994 65.856 278.138 64.704C276.314 63.552 274.858 61.936 273.77 59.856C272.714 57.744 272.186 55.328 272.186 52.608ZM293.114 52.704C293.114 51.072 292.794 49.68 292.154 48.528C291.514 47.344 290.65 46.448 289.562 45.84C288.474 45.2 287.306 44.88 286.058 44.88C284.81 44.88 283.658 45.184 282.602 45.792C281.546 46.4 280.682 47.296 280.01 48.48C279.37 49.632 279.05 51.008 279.05 52.608C279.05 54.208 279.37 55.616 280.01 56.832C280.682 58.016 281.546 58.928 282.602 59.568C283.69 60.208 284.842 60.528 286.058 60.528C287.306 60.528 288.474 60.224 289.562 59.616C290.65 58.976 291.514 58.08 292.154 56.928C292.794 55.744 293.114 54.336 293.114 52.704ZM313.165 43.536C314.029 42.128 315.149 41.024 316.525 40.224C317.933 39.424 319.533 39.024 321.325 39.024V46.08H319.549C317.437 46.08 315.837 46.576 314.749 47.568C313.693 48.56 313.165 50.288 313.165 52.752V66H306.445V39.408H313.165V43.536Z" fill="white"/>
</svg>
